<svg xmlns="http://www.w3.org/2000/svg" viewBox="0 0 64 64">
  <title>Ahara Mail</title>
  <rect width="64" height="64" rx="14" fill="#f1ebdd" />
  <path
    fill="#232014"
    d="M12 17h40a5 5 0 0 1 5 5v27a5 5 0 0 1-5 5H12a5 5 0 0 1-5-5V22a5 5 0 0 1 5-5Z"
  />
  <path
    fill="#f3eeda"
    d="M12 23.6v-1.8h40v1.8L32 38.1 12 23.6Zm0 5.7 14.2 10.2L12 48.8V29.3Zm40 0v19.5l-14.2-9.3L52 29.3ZM32 43.4l3.7-2.6L50 50H14l14.3-9.2 3.7 2.6Z"
  />
  <circle cx="46" cy="46" r="10" fill="#b23a26" />
  <path
    fill="#f1ebdd"
    d="M41.8 45.8c0-3.3 2-5.4 4.5-5.4 1.7 0 3 .8 3.8 2.2l-2 1.2c-.4-.7-.9-1.1-1.8-1.1-1.1 0-1.9 1.1-1.9 3.1s.8 3.1 2 3.1c.8 0 1.5-.5 1.9-1.4l2 1.1c-.8 1.7-2.2 2.6-4 2.6-2.6 0-4.5-2.1-4.5-5.4Z"
  />
</svg>
